<svg width="218" height="230" viewBox="0 0 218 230" fill="none" xmlns="http://www.w3.org/2000/svg">
<g filter="url(#filter0_d_1:24)">
<path d="M44.3458 146.972C41.0234 148.96 39.9197 153.284 42.1864 156.418C49.7363 166.856 59.662 175.403 71.1852 181.329C84.7925 188.328 100.087 191.395 115.346 190.186C130.605 188.977 145.224 183.539 157.554 174.485C169.885 165.431 179.439 153.121 185.139 138.94C190.84 124.759 192.461 109.271 189.82 94.2201C187.18 79.1692 180.382 65.1531 170.193 53.7501C160.003 42.3472 146.827 34.0104 132.148 29.6785C119.717 26.0099 106.625 25.337 93.9414 27.6703C90.1338 28.3707 87.9375 32.2568 88.9616 35.9862L92.6263 49.3318C93.6485 53.0544 97.4959 55.1953 101.323 54.6616C108.971 53.5951 116.787 54.1647 124.244 56.3653C133.946 59.2283 142.654 64.7381 149.388 72.2743C156.122 79.8104 160.615 89.0737 162.36 99.0208C164.105 108.968 163.034 119.204 159.266 128.576C155.499 137.948 149.185 146.084 141.035 152.068C132.886 158.052 123.225 161.646 113.14 162.445C103.055 163.244 92.9471 161.217 83.9541 156.591C77.0418 153.036 70.9993 148.055 66.2112 142.007C63.815 138.98 59.5527 137.872 56.2366 139.856L44.3458 146.972Z" fill="white"/>
</g>
<g filter="url(#filter1_d_1:24)">
<path d="M75.7558 41.5779C74.0471 38.1125 69.8364 36.6608 66.5283 38.6538C51.1969 47.8905 39.2504 61.9282 32.6111 78.6846C25.9718 95.4413 25.0594 113.858 29.8998 131.1C30.9441 134.82 35.0047 136.65 38.6224 135.299L51.5993 130.449C55.2229 129.095 57.0121 125.061 56.131 121.293C53.6252 110.576 54.4253 99.2937 58.5174 88.9656C62.6095 78.6378 69.7524 69.8729 78.9155 63.7871C82.1378 61.6469 83.5978 57.4821 81.8864 54.0112L75.7558 41.5779Z" fill="#FFD032"/>
</g>
<path d="M96.8004 91.912V94.216L89.0484 109H85.7364L93.4644 94.432H84.8964V91.912H96.8004ZM105.239 109.216C103.207 109.216 101.655 108.472 100.583 106.984C99.5271 105.48 98.9991 103.296 98.9991 100.432C98.9991 97.616 99.5271 95.464 100.583 93.976C101.655 92.488 103.207 91.744 105.239 91.744C107.271 91.744 108.815 92.488 109.871 93.976C110.943 95.448 111.479 97.6 111.479 100.432C111.479 103.28 110.943 105.456 109.871 106.96C108.815 108.464 107.271 109.216 105.239 109.216ZM105.239 106.792C106.343 106.792 107.143 106.288 107.639 105.28C108.151 104.256 108.407 102.64 108.407 100.432C108.407 98.256 108.151 96.672 107.639 95.68C107.143 94.672 106.343 94.168 105.239 94.168C104.135 94.168 103.327 94.672 102.815 95.68C102.319 96.672 102.071 98.256 102.071 100.432C102.071 102.64 102.319 104.256 102.815 105.28C103.327 106.288 104.135 106.792 105.239 106.792ZM117.782 102.112C116.438 102.112 115.382 101.672 114.614 100.792C113.862 99.896 113.486 98.592 113.486 96.88C113.486 95.184 113.862 93.896 114.614 93.016C115.382 92.12 116.438 91.672 117.782 91.672C119.142 91.672 120.206 92.12 120.974 93.016C121.742 93.896 122.126 95.184 122.126 96.88C122.126 98.592 121.742 99.896 120.974 100.792C120.206 101.672 119.142 102.112 117.782 102.112ZM117.614 109L127.502 91.912H130.166L120.254 109H117.614ZM117.782 100.168C118.406 100.168 118.862 99.912 119.15 99.4C119.438 98.888 119.582 98.048 119.582 96.88C119.582 95.744 119.43 94.92 119.126 94.408C118.838 93.88 118.39 93.616 117.782 93.616C117.19 93.616 116.75 93.88 116.462 94.408C116.174 94.92 116.03 95.744 116.03 96.88C116.03 98.032 116.174 98.872 116.462 99.4C116.75 99.912 117.19 100.168 117.782 100.168ZM129.974 109.168C128.614 109.168 127.55 108.728 126.782 107.848C126.03 106.952 125.654 105.64 125.654 103.912C125.654 102.216 126.03 100.928 126.782 100.048C127.55 99.168 128.614 98.728 129.974 98.728C131.334 98.728 132.39 99.168 133.142 100.048C133.91 100.928 134.294 102.224 134.294 103.936C134.294 105.648 133.91 106.952 133.142 107.848C132.39 108.728 131.334 109.168 129.974 109.168ZM129.974 107.224C130.582 107.224 131.03 106.968 131.318 106.456C131.606 105.928 131.75 105.088 131.75 103.936C131.75 102.8 131.598 101.976 131.294 101.464C131.006 100.936 130.566 100.672 129.974 100.672C129.366 100.672 128.918 100.936 128.63 101.464C128.342 101.976 128.198 102.8 128.198 103.936C128.198 105.088 128.342 105.928 128.63 106.456C128.918 106.968 129.366 107.224 129.974 107.224ZM91.5159 132.162C89.7519 132.162 88.4139 131.712 87.5019 130.812C86.6019 129.9 86.1519 128.568 86.1519 126.816V119.184H88.4379V126.942C88.4379 128.046 88.6959 128.886 89.2119 129.462C89.7279 130.026 90.4959 130.308 91.5159 130.308C92.5119 130.308 93.2679 130.02 93.7839 129.444C94.3119 128.868 94.5759 128.034 94.5759 126.942V119.184H96.8619V126.816C96.8619 128.556 96.4059 129.882 95.4939 130.794C94.5819 131.706 93.2559 132.162 91.5159 132.162ZM103.886 132.162C102.902 132.162 101.978 132.03 101.114 131.766C100.262 131.502 99.5361 131.124 98.9361 130.632L99.7281 128.94C100.352 129.408 101 129.756 101.672 129.984C102.356 130.2 103.1 130.308 103.904 130.308C104.792 130.308 105.476 130.152 105.956 129.84C106.448 129.528 106.694 129.09 106.694 128.526C106.694 128.046 106.466 127.68 106.01 127.428C105.566 127.164 104.828 126.918 103.796 126.69C102.188 126.342 101.018 125.892 100.286 125.34C99.5541 124.788 99.1881 123.984 99.1881 122.928C99.1881 122.172 99.3921 121.5 99.8001 120.912C100.208 120.324 100.784 119.862 101.528 119.526C102.284 119.19 103.154 119.022 104.138 119.022C105.038 119.022 105.89 119.16 106.694 119.436C107.51 119.7 108.176 120.072 108.692 120.552L107.918 122.244C106.778 121.332 105.518 120.876 104.138 120.876C103.31 120.876 102.656 121.05 102.176 121.398C101.696 121.734 101.456 122.196 101.456 122.784C101.456 123.288 101.666 123.672 102.086 123.936C102.518 124.2 103.25 124.446 104.282 124.674C105.35 124.926 106.22 125.202 106.892 125.502C107.564 125.79 108.08 126.168 108.44 126.636C108.8 127.092 108.98 127.668 108.98 128.364C108.98 129.132 108.776 129.804 108.368 130.38C107.96 130.944 107.372 131.382 106.604 131.694C105.836 132.006 104.93 132.162 103.886 132.162ZM111.132 119.184H119.7V121.02H113.4V124.566H119.322V126.402H113.4V130.164H119.7V132H111.132V119.184ZM121.837 119.184H126.553C128.653 119.184 130.279 119.742 131.431 120.858C132.595 121.974 133.177 123.546 133.177 125.574C133.177 127.614 132.595 129.198 131.431 130.326C130.279 131.442 128.653 132 126.553 132H121.837V119.184ZM126.409 130.11C129.361 130.11 130.837 128.598 130.837 125.574C130.837 122.574 129.361 121.074 126.409 121.074H124.159V130.11H126.409Z" fill="white"/>
<defs>
<filter id="filter0_d_1:24" x="9.995" y="9.31142" width="206.058" height="220.132" filterUnits="userSpaceOnUse" color-interpolation-filters="sRGB">
<feFlood flood-opacity="0" result="BackgroundImageFix"/>
<feColorMatrix in="SourceAlpha" type="matrix" values="0 0 0 0 0 0 0 0 0 0 0 0 0 0 0 0 0 0 127 0" result="hardAlpha"/>
<feOffset dx="-3" dy="11"/>
<feGaussianBlur stdDeviation="14"/>
<feColorMatrix type="matrix" values="0 0 0 0 0.216667 0 0 0 0 0.216667 0 0 0 0 0.216667 0 0 0 0.13 0"/>
<feBlend mode="normal" in2="BackgroundImageFix" result="effect1_dropShadow_1:24"/>
<feBlend mode="normal" in="SourceGraphic" in2="effect1_dropShadow_1:24" result="shape"/>
</filter>
<filter id="filter1_d_1:24" x="24.8434" y="37.7508" width="63.7662" height="105.992" filterUnits="userSpaceOnUse" color-interpolation-filters="sRGB">
<feFlood flood-opacity="0" result="BackgroundImageFix"/>
<feColorMatrix in="SourceAlpha" type="matrix" values="0 0 0 0 0 0 0 0 0 0 0 0 0 0 0 0 0 0 127 0" result="hardAlpha"/>
<feOffset dx="2" dy="4"/>
<feGaussianBlur stdDeviation="2"/>
<feColorMatrix type="matrix" values="0 0 0 0 1 0 0 0 0 0.815686 0 0 0 0 0.196078 0 0 0 0.25 0"/>
<feBlend mode="normal" in2="BackgroundImageFix" result="effect1_dropShadow_1:24"/>
<feBlend mode="normal" in="SourceGraphic" in2="effect1_dropShadow_1:24" result="shape"/>
</filter>
</defs>
</svg>
